<svg xmlns="http://www.w3.org/2000/svg" aria-hidden="true" style="position:absolute;width:0;height:0;overflow:hidden"><defs><symbol id="icon-Logo" viewBox="0 0 108 32"><path fill="#e85668" d="M13.483 16.936c.019.019.019.038.038.056l-.038-.056zm9.989-.207c.473.885.832 1.883.832 2.881a3.723 3.723 0 0 1-1.078 2.749c-.757.753-1.741 1.092-2.781 1.168a5.034 5.034 0 0 1-.757 0 4.432 4.432 0 0 1-.832-.188c-.53-.188-.984-.471-1.287-.96a.17.17 0 0 1 .019-.207l-.114-.056c-.057-.038-.132-.056-.208-.113l-.132.113a7.22 7.22 0 0 1-1.589.866 7.726 7.726 0 0 1-1.589.471 9.598 9.598 0 0 1-3.595.056 7.293 7.293 0 0 1-3.197-1.393c-.889-.678-1.589-1.676-1.778-2.787-.038-.151.17-.245.246-.113.132.264.303.508.473.753.17.207.397.414.605.603.189.188.416.358.643.508.246.169.511.32.776.452.076.038.151.075.208.113l.114.056.322.113.057.038c2.27.245 3.633.245 5.127-.188 3.273-.998 4.843-3.069 4.919-4.444.095-1.827-.738-2.712-1.362-3.107l-.189-.038c-.284-.038-.568-.038-.851-.038-.265 0-.53.038-.776.113-.151.038-.303.075-.435.113l-.114.038-.038.019c-.038.019-.114.038-.151.075a2.11 2.11 0 0 0-.397.226l-.17.113-.019.019-.038.038c-.114.094-.208.169-.303.282-.038.038-.095.094-.114.151l-.019.019-.019.038a3.258 3.258 0 0 0-.208.339c-.019.056-.038.113-.076.169l-.019.038a3.027 3.027 0 0 0-.17.716v.094c.019.019.019.075.019.151 0 .019 0 .038.019.038a.442.442 0 0 1 .038.151l-.019-.019c0 .019.019.019.019.038.019.038.038.056.019.038v.019c.038.056.057.113.095.169s.057.075.076.113l.057.075a.73.73 0 0 0 .132.113l.038.038.17.113.057.038.038.019c.076.038.132.038.208.056l.114.038c.095.019.057.019.038.019.132.019.265.019.397 0h.057l.038-.019c.057-.019.114-.038.17-.038l.095-.038.113-.056c.038-.038.114-.056.151-.094l.076-.038.038-.038c.076-.056.132-.113.189-.169.038-.038.076-.094.114-.113l.019-.019.038-.038.17-.282.038-.056v-.019l.057-.169a.543.543 0 0 0 .038-.169c0-.038.038-.169.019-.094a1.706 1.706 0 0 0 0-.621c-.038-.169.095-.32.246-.339.114-.019.208.038.284.113.132.226.246.471.284.753a2.445 2.445 0 0 1-.36 1.619 2.636 2.636 0 0 1-1.381 1.13c-1.4.527-3.16-.433-3.424-1.902-.246-1.375.587-2.73 1.778-3.352.114-.038.189-.113.303-.151-1.305-2.617-4.938-2.467-6.811-.697-1.873 1.695-.643 4.915-.643 4.915a.264.264 0 0 1-.114.377.322.322 0 0 1-.265 0c-.303-.169-.568-.395-.814-.621-.832.094-2.384.49-2.27 2.429.114 1.808 1.949 2.241 2.989 2.335h.076c.208-.038.416-.038.624-.038.038.019.038.038.038.056v.019c-.17.226-.397.377-.662.471a4.984 4.984 0 0 1-.851.264 4.104 4.104 0 0 1-1.854-.038c-2.024-.433-3.67-2.41-3.5-4.519a4.528 4.528 0 0 1 1.268-2.806c.851-.847 2.005-1.168 3.178-1.28.019-.301.038-.603.095-.885.511-3.145 3.689-5.254 6.716-5.348a7.633 7.633 0 0 1 4.276 1.167c.605.395 1.173.885 1.608 1.469.246.282.454.603.643.923.095.169.17.32.246.508.057.169.113.32.113.49.019.094-.095.169-.151.094l-.038-.075.019.038.114.226.038.038.019.038c1.116.169 2.195.584 3.122 1.186s1.684 1.412 2.195 2.354zm-8.192.96c.038 0 .038-.019.057-.038l-.057.038zm-1.873-.998c-.019-.056-.019-.038 0 0zm.208-.998-.019.038c.038-.056.057-.132.019-.038zM9.661 7.125c.019.019.038.019.038.019s.019 0 .019-.019c.019-.075.057-.151.076-.226s.019-.169.038-.245c.038-.169.095-.358.151-.527.113-.32.322-.603.568-.829.322-.245.681-.414 1.097-.433.095.226.17.471.227.697.057.245.057.471.151.697 0 .019.038.038.038.019h.019c.284-.245.284-.734.246-1.092-.038-.056-.038-.151-.057-.226.511.207.87.678.908 1.243.019.565-.397 1.036-.965 1.111a1.588 1.588 0 0 1-1.041-.245 1.376 1.376 0 0 1-.341-.395c-.038-.075-.076-.169-.114-.245-.019-.094-.019-.17-.038-.264s-.114-.075-.151-.038a.774.774 0 0 0-.246.546c-.019.245.038.471.17.678.265.395.681.678 1.173.753.473.113.984 0 1.4-.264.36-.264.643-.64.776-1.054a1.763 1.763 0 0 0-.019-1.243 2.192 2.192 0 0 0-.851-1.036 1.903 1.903 0 0 0-.965-.32l-.038-.132a3.556 3.556 0 0 1-.189-1.186c.038-.471.246-.866.435-1.299.189-.471.36-1.036.038-1.525-.038-.038-.076-.057-.114-.038.019-.019 0 .019 0 .056.095.64-.265 1.186-.587 1.714a3.061 3.061 0 0 0-.322.772 2.42 2.42 0 0 0-.019.829c.038.245.113.527.17.753a2.266 2.266 0 0 0-.927.395 2.446 2.446 0 0 0-.832 1.205 2.348 2.348 0 0 0-.114.716c0 .113.019.245.038.358.057.113.095.226.151.32zm8.022 24.555c.019 0 .038 0 0 0zm.322-.49a.532.532 0 0 1 .019.301.265.265 0 0 1-.322.188c-.038 0-.114-.019-.151-.038s-.095-.038-.114-.075c-.057-.038-.132-.075-.208-.113l-.038-.019a.353.353 0 0 0-.132-.038c-.095-.019-.17-.038-.265-.056l-.284-.056h-.057l-.151-.019c-.208-.019-.416-.038-.624-.038-.36 0-.738.038-1.097.075l-.114.019h-.038l-.208.038a3.665 3.665 0 0 0-.435.075c-.832.132-1.684.264-2.516.395-.851.113-1.741.226-2.592.075a3.599 3.599 0 0 1-1.381-.508 1.042 1.042 0 0 1-.454-.527c-.057-.151-.095-.32.038-.452.019-.019.038-.019.038 0 0 0 0 .019.019.019.038.264.303.377.53.471.246.113.511.207.795.245.435.075.87.094 1.324.056a14.64 14.64 0 0 0 2.535-.358c.681-.151 1.362-.32 2.043-.433.719-.113 1.476-.207 2.195-.132.397.038.776.132 1.135.32.151.075.284.169.397.301.019.019.095.113.057.094-.038-.038.038.056.038.056-.019.056 0 .094.019.132zm-1.552.095c-.038 0-.019 0 0 0zm-8.646-.641c.038.038.076.056.113.038s.038-.038.038-.075a5.971 5.971 0 0 0-.227-1.412c-.113-.471-.246-.96-.397-1.412a10.234 10.234 0 0 0-1.381-2.617 4.48 4.48 0 0 0-.587-.621c-.189-.169-.378-.358-.568-.527-.114-.113-.322-.113-.435 0s-.114.32 0 .433c.284.32.53.678.757 1.054.227.395.511.753.738 1.168a32.22 32.22 0 0 1 1.305 2.542c.227.433.378.96.643 1.431zm11.389-6.779a8.01 8.01 0 0 0-.605.527c-.17.188-.322.414-.435.659a6.1 6.1 0 0 0-.53 1.525 8.136 8.136 0 0 0-.208 1.789v.866c0 .301.019.603.076.885.019.038.057.038.057 0 .095-.264.17-.546.189-.829l.17-.847a22.9 22.9 0 0 1 .397-1.619c.132-.471.303-.923.511-1.356.227-.452.416-.923.681-1.356.114-.188-.132-.358-.303-.245zM8.602 25.617c.113.471.246.96.322 1.431.17.96.322 1.921.397 2.9.019.132.114.226.246.207.114-.019.208-.113.208-.207.038-.508.019-1.017-.038-1.525s-.17-1.017-.284-1.525a8.8 8.8 0 0 0-.473-1.412c-.114-.245-.208-.471-.322-.678-.057-.113-.114-.207-.17-.32-.076-.113-.095-.169-.17-.188-.019 0-.038 0-.038.019-.019.094-.019.169.038.245.038.113.076.245.114.377.057.207.114.452.17.678zm6.565 3.803c.151-.169.132-.395.17-.603.038-.226.095-.452.132-.678.095-.471.17-.923.246-1.393.076-.433.132-.847.246-1.262.038-.207.114-.414.17-.621s.114-.452.189-.678c.113-.32-.36-.49-.53-.226a4.223 4.223 0 0 0-.341.64c-.076.188-.132.395-.189.603a10.69 10.69 0 0 0-.265 1.356c-.076.471-.132.96-.151 1.469 0 .245.019.49.038.734.019.207.019.471.17.621.038.075.095.075.114.038zm-2.763.17c-.019-.753-.038-1.525-.095-2.26-.057-.753-.095-1.525-.284-2.241-.019-.094-.095-.132-.17-.132-.095.019-.132.094-.132.169-.057.753.019 1.488.038 2.241s.076 1.488.113 2.241c.038.32.549.32.53-.019zM10.493 5.713l1.041-.527c-.643.019-1.041.527-1.041.527zM44.189 21.041a.539.539 0 0 0-.454.226c-.341.452-.776.847-1.23 1.186a2.324 2.324 0 0 1-1.23.339c-.492 0-.965-.264-1.192-.697-.265-.49-.416-1.299-.416-2.41 0-.452 0-.885.038-1.337 2.706-1.036 4.087-2.881 4.087-5.536a2.592 2.592 0 0 0-.492-1.657c-.303-.414-.776-.659-1.268-.621-.776 0-1.495.377-1.968.96-.624.734-1.154 1.582-1.495 2.504a16.646 16.646 0 0 0-.889 3.333c-.587.075-1.154.151-1.741.151l-1.589.075c.227-1.186.341-2.41.378-3.615 0-.998-.189-1.732-.549-2.222a1.95 1.95 0 0 0-1.627-.697c-.776 0-1.514.226-2.195.621-.7.414-1.305.96-1.778 1.619a2.078 2.078 0 0 0-.416 1.036c0 .188.038.377.151.508.076.113.227.188.378.226a.648.648 0 0 0 .492-.264c.965-1.262 1.778-1.883 2.554-1.883.227 0 .454.113.587.264.189.301.265.659.227 1.036a21.902 21.902 0 0 1-.416 3.484l-.851.038c-.378 0-.7.075-1.003.301a.868.868 0 0 0-.303.772.604.604 0 0 0 .265.584c.227.151.511.226.776.188l.776-.038c-.227 1.036-.511 2.26-.851 3.728a2.887 2.887 0 0 0-.076.584c0 .621.341.923 1.041.923.624 0 1.078-.49 1.305-1.412.378-1.582.7-2.919.889-4.03.227 0 .587-.038 1.154-.075.776-.075 1.551-.151 2.346-.301-.038.377-.038.734-.038 1.111 0 1.506.303 2.655.927 3.484a3.134 3.134 0 0 0 2.497 1.224c1.192 0 2.346-.659 3.424-1.958.227-.301.341-.621.303-.998 0-.188-.038-.377-.114-.508-.189-.132-.303-.207-.416-.245zm-2.194-9.095c.151 0 .265.075.341.226a.806.806 0 0 1 .114.584 4.573 4.573 0 0 1-.624 2.504 3.81 3.81 0 0 1-1.892 1.506c.113-.81.303-1.619.549-2.448.189-.621.454-1.186.738-1.732.284-.414.549-.64.776-.64zm3.31 12.786c.851 0 1.551-.452 2.119-1.337.114.377.378.734.662.998.265.226.624.377.965.377a2.77 2.77 0 0 0 1.457-.546 9.108 9.108 0 0 0 1.419-1.412c.227-.301.341-.621.303-.998 0-.188-.038-.377-.114-.508a.398.398 0 0 0-.341-.188.539.539 0 0 0-.454.226c-.378.452-.738.885-1.192 1.299a1.169 1.169 0 0 1-.738.414c-.113 0-.227-.038-.303-.151s-.114-.226-.114-.377c.038-.885.189-1.732.378-2.58.114-.508.189-1.073.265-1.619 0-.377-.265-.546-.776-.546-.227 0-.492.038-.7.075-.038-.188-.114-.339-.189-.49a.763.763 0 0 0-.492-.151c-.738 0-1.495.264-2.119.697-.662.49-1.23 1.111-1.589 1.845-.416.734-.587 1.582-.587 2.448a2.898 2.898 0 0 0 .587 1.883c.359.377.946.64 1.551.64zm.587-1.62c-.227 0-.416-.075-.549-.226-.151-.226-.227-.49-.189-.734 0-.584.114-1.149.341-1.695.189-.49.511-.923.927-1.299a2.01 2.01 0 0 1 1.268-.508l-.587 2.956a2.46 2.46 0 0 1-.492 1.111 1.243 1.243 0 0 1-.719.395zm13.622-2.071a.539.539 0 0 0-.454.226c-.378.49-.776.885-1.23 1.299-.303.226-.624.377-1.003.377-.189 0-.378-.038-.549-.113.341-.452.549-.96.738-1.488.189-.508.265-1.111.265-1.657.038-.659-.189-1.337-.549-1.883-.341-.49-.889-.734-1.495-.734-.378 0-.738.113-1.078.301a3.175 3.175 0 0 0-1.003.998v-.584c0-.188-.038-.414-.189-.546a.836.836 0 0 0-.492-.151 1.77 1.77 0 0 0-.965.264c-.265.151-.378.452-.378.734.038.621.038 1.695.038 3.258a28.053 28.053 0 0 0-2.232 4.613c-.454 1.186-.7 2.41-.738 3.653a3.093 3.093 0 0 0 .416 1.732c.303.414.776.659 1.305.621.965 0 1.665-.697 2.195-2.071.549-1.657.851-3.408.965-5.178.662 0 1.343-.226 1.93-.584.341.414.851.621 1.381.584.624 0 1.305-.188 1.816-.546.549-.414 1.078-.847 1.495-1.412.227-.301.341-.621.303-.998 0-.188-.038-.377-.114-.508-.076-.094-.227-.169-.378-.207zm-9.46 9.377c-.114 0-.189-.113-.303-.264a1.386 1.386 0 0 1-.114-.772c.038-.847.151-1.657.416-2.486a22.978 22.978 0 0 1 1.116-3.069 38.567 38.567 0 0 1-.378 4.689c-.189 1.28-.435 1.902-.738 1.902zm3.084-7.231v-3.22c.549-.81 1.003-1.224 1.419-1.224.189 0 .416.075.511.264.151.226.227.49.189.734 0 .508-.114 1.073-.303 1.544-.189.49-.454.885-.776 1.262a2.209 2.209 0 0 1-1.041.64zm14.19-2.109a.539.539 0 0 0-.454.226c-.378.49-.776.885-1.229 1.299-.303.226-.625.377-1.003.377-.189 0-.378-.038-.548-.113.34-.452.548-.96.737-1.488s.265-1.111.265-1.657c.038-.659-.189-1.337-.548-1.883-.34-.49-.889-.734-1.495-.734-.378 0-.738.113-1.078.301-.416.264-.738.546-1.003.923v-.584c0-.188-.038-.414-.189-.546a.836.836 0 0 0-.492-.151 1.77 1.77 0 0 0-.965.264c-.265.151-.378.452-.378.734.038.621.038 1.695.038 3.258a28.053 28.053 0 0 0-2.232 4.613c-.454 1.186-.7 2.41-.738 3.653a3.101 3.101 0 0 0 .416 1.732c.303.414.776.659 1.305.621.965 0 1.665-.697 2.195-2.071.549-1.657.851-3.408.965-5.178.662 0 1.343-.226 1.93-.584.341.414.851.621 1.381.584.624 0 1.306-.188 1.816-.546.548-.414 1.078-.847 1.494-1.412.227-.301.34-.621.303-.998 0-.188-.038-.377-.113-.508-.17-.094-.265-.169-.378-.132zm-9.517 9.34c-.114 0-.189-.113-.303-.264a1.395 1.395 0 0 1-.114-.772c.038-.847.151-1.657.416-2.486a22.978 22.978 0 0 1 1.116-3.069 38.567 38.567 0 0 1-.378 4.689c-.17 1.28-.435 1.902-.738 1.902zm3.084-7.231v-3.22c.549-.81 1.003-1.224 1.419-1.224.189 0 .416.075.511.264.151.226.227.49.189.734 0 .508-.114 1.073-.303 1.544-.189.49-.416.885-.738 1.262a2.43 2.43 0 0 1-1.078.64zm13.812-2.109a.488.488 0 0 0-.379.151 47.492 47.492 0 0 0-2.421 1.695l.416-2.58c.303-1.582.416-2.504.416-2.768 0-.113-.038-.264-.151-.339a1.195 1.195 0 0 0-.511-.113c-.549-.075-1.117.301-1.192.885v.038c-.227.81-.492 1.619-.813 2.41a6.554 6.554 0 0 1-.776 1.488c-.265.339-.454.49-.586.49-.227 0-.341-.226-.341-.584 0-.339.038-.659.114-.998.076-.414.151-.81.227-1.262.076-.339.151-.659.264-1.073.076-.301.152-.584.189-.885 0-.113-.038-.264-.151-.339a1.179 1.179 0 0 0-.492-.113c-.34-.038-.625.038-.927.226a1.326 1.326 0 0 0-.454.697c-.227.697-.416 1.412-.511 2.109-.114.734-.189 1.488-.152 2.222-.038.584.152 1.186.454 1.657.265.414.7.659 1.192.659.492-.038.927-.226 1.23-.584.454-.508.738-1.111.889-1.77-.113.734-.189 1.299-.265 1.695l-.038.377a19.774 19.774 0 0 0-2.668 2.335 7.372 7.372 0 0 0-1.306 1.808c-.227.49-.34.998-.34 1.544-.038.49.152.96.511 1.337a1.99 1.99 0 0 0 1.343.508c1.041 0 1.854-.621 2.516-1.921.776-1.657 1.343-3.446 1.589-5.254l3.084-2.071a.904.904 0 0 0 .378-.377c.076-.188.113-.377.113-.584 0-.188-.038-.377-.113-.508-.038-.094-.189-.207-.34-.207zm-7.058 9.303a.396.396 0 0 1-.34-.188.994.994 0 0 1-.113-.452 2.868 2.868 0 0 1 .548-1.506c.511-.697 1.116-1.375 1.779-1.921a14.908 14.908 0 0 1-1.003 3.107c-.303.678-.605.96-.87.96zm13.074-5.649c.776 0 1.551-.075 2.346-.226a11.686 11.686 0 0 0 2.384-.734c.7-.301 1.078-.772 1.078-1.45a.839.839 0 0 0-.152-.508c-.076-.113-.227-.188-.378-.188s-.265.038-.416.113c-.776.339-1.551.584-2.384.81-.7.188-1.419.264-2.119.264-1.419 0-2.497-.377-3.197-1.073s-1.078-1.695-1.078-2.956c-.038-1.111.189-2.184.586-3.182.341-.81.852-1.506 1.551-2.034.587-.452 1.306-.659 2.044-.697 1.041 0 1.551.49 1.551 1.488 0 .264-.038.508-.113.772-.038.188-.038.377-.076.508 0 .226.076.452.264.584a1.137 1.137 0 0 0 1.628-.301c.038-.038.038-.038.038-.075.265-.49.378-1.036.34-1.582.038-.885-.303-1.732-.889-2.373-.587-.584-1.495-.885-2.63-.885-1.23 0-2.422.339-3.425.998-1.041.697-1.892 1.695-2.46 2.843a9.251 9.251 0 0 0-.89 4.218 5.764 5.764 0 0 0 .738 2.994 5.235 5.235 0 0 0 2.195 1.996c1.173.49 2.308.716 3.462.678zm6.546 0c.851 0 1.551-.452 2.119-1.337.113.377.378.734.662.998.265.226.625.377.965.377a2.77 2.77 0 0 0 1.457-.546c.511-.414 1.003-.847 1.419-1.375.227-.301.34-.621.303-.998 0-.188-.038-.377-.113-.508a.397.397 0 0 0-.34-.188.54.54 0 0 0-.454.226c-.378.452-.738.885-1.192 1.299a1.169 1.169 0 0 1-.738.414.463.463 0 0 1-.34-.151.633.633 0 0 1-.114-.377c.038-.885.189-1.732.379-2.58.113-.508.189-1.073.227-1.619 0-.377-.264-.546-.776-.546-.227 0-.492.038-.7.075-.038-.188-.114-.339-.189-.49a.763.763 0 0 0-.492-.151c-.737 0-1.494.264-2.118.697-.662.49-1.23 1.111-1.59 1.845-.416.734-.586 1.582-.586 2.448a2.903 2.903 0 0 0 .586 1.883c.397.339.984.603 1.628.603zm.586-1.62c-.227 0-.416-.075-.548-.226-.152-.226-.227-.49-.189-.734 0-.584.114-1.149.34-1.695.189-.49.511-.923.927-1.299.34-.301.776-.49 1.267-.508l-.586 2.956a2.46 2.46 0 0 1-.492 1.111 1.243 1.243 0 0 1-.719.395zm14.379-2.071a.54.54 0 0 0-.454.226 13.24 13.24 0 0 1-1.229 1.299 1.467 1.467 0 0 1-.965.377c-.303 0-.548-.075-.776-.264s-.378-.414-.416-.697a3.778 3.778 0 0 0 1.551-1.337c.303-.49.454-1.036.454-1.619 0-.49-.151-.96-.492-1.337s-.813-.546-1.306-.546c-.586 0-1.192.301-1.854.923s-1.268 1.582-1.779 2.919c0-.584 0-1.149.038-1.732a21.954 21.954 0 0 0 3.122-4.067 7.317 7.317 0 0 0 .965-3.371c.038-.584-.152-1.149-.454-1.657-.265-.414-.7-.621-1.192-.621-.927 0-1.703.584-2.384 1.808-.738 1.412-1.229 2.956-1.494 4.5a26.452 26.452 0 0 0-.511 5.178c0 .998.038 1.732.076 2.222.038.414.113.772.34 1.111a.758.758 0 0 0 .738.377.902.902 0 0 0 .738-.264c.227-.301.34-.659.416-1.036.189-.697.416-1.375.7-2.034a8.73 8.73 0 0 1 .964-1.619c.341-.414.662-.621.965-.621.113 0 .227.038.303.151s.152.301.113.452c0 .301-.113.621-.303.847a2.9 2.9 0 0 1-1.002.659.833.833 0 0 0-.625.885c-.038.697.227 1.412.738 1.883.548.49 1.268.734 2.006.697.624 0 1.267-.188 1.74-.508a9.592 9.592 0 0 0 1.495-1.412c.227-.301.34-.621.303-.998 0-.188-.038-.377-.114-.508-.132-.188-.265-.264-.416-.264zm-5.203-9.905c.152 0 .265.075.341.264.076.264.113.508.113.772a6.018 6.018 0 0 1-.662 2.504 11.998 11.998 0 0 1-1.665 2.542c.113-1.036.303-2.071.548-3.069.189-.734.417-1.506.7-2.222.208-.527.435-.791.624-.791zm10.103 10.376c-.189 0-.34.113-.454.226a6.555 6.555 0 0 1-1.003 1.036c-.34.226-.7.339-1.078.301-.548.038-1.078-.264-1.306-.734 1.306-.301 2.195-.734 2.706-1.262.511-.49.813-1.186.776-1.921.038-.546-.189-1.111-.549-1.506-.416-.377-.927-.584-1.494-.546-.662 0-1.343.188-1.892.546s-1.003.923-1.306 1.506a4.897 4.897 0 0 0-.492 2.071 3.632 3.632 0 0 0 .851 2.504c.624.621 1.514.96 2.422.923a3.455 3.455 0 0 0 1.74-.377c.492-.264.89-.621 1.192-1.073.189-.301.303-.621.265-.998 0-.188-.038-.377-.114-.508.019-.113-.113-.188-.265-.188zm-2.648-2.806c.189 0 .34.075.454.188.114.151.189.301.189.49 0 .414-.227.81-.548 1.036a3.567 3.567 0 0 1-1.495.659v-.038c0-.584.114-1.149.417-1.657.17-.377.548-.64.984-.678z" opacity=".8" style="fill:var(--color1, #e85668)"/></symbol><symbol id="icon-phone" viewBox="0 0 21 32"><path fill="#fff" d="M18.286 0h-16A2.287 2.287 0 0 0 .001 2.285v27.429a2.287 2.287 0 0 0 2.285 2.285h16a2.287 2.287 0 0 0 2.286-2.285V2.285A2.283 2.283 0 0 0 18.286 0zm-6.857 29.714H9.143v-2.286h2.286v2.286zm-9.143-4.571V2.286h16v22.857h-16z" style="fill:var(--color2, #fff)"/></symbol><symbol id="icon-speed" viewBox="0 0 32 32"><path fill="#e6398a" d="M20.673 5.373h1.779v3.564h-1.779V5.373z" style="fill:var(--color3, #e6398a)"/><path fill="#ff489e" d="M21.566 5.373h.893v3.564h-.893V5.373z" style="fill:var(--color4, #ff489e)"/><path fill="#e6398a" d="M21.566 8.044c-5.397 0-9.794 4.397-9.794 9.794s4.397 9.794 9.794 9.794 9.794-4.397 9.794-9.794-4.397-9.794-9.794-9.794z" style="fill:var(--color3, #e6398a)"/><path fill="#ff6ab1" d="M31.36 17.844c0 5.397-4.397 9.794-9.794 9.794V8.044c5.397 0 9.794 4.403 9.794 9.8z" style="fill:var(--color5, #ff6ab1)"/><path fill="#fcf2f7" d="M21.566 9.823c-4.415 0-8.015 3.6-8.015 8.015s3.6 8.015 8.015 8.015c4.415 0 8.015-3.6 8.015-8.015s-3.6-8.015-8.015-8.015z" style="fill:var(--color6, #fcf2f7)"/><path fill="#ebdce2" d="M29.581 17.844c0 4.415-3.6 8.015-8.015 8.015V9.823c4.415 0 8.015 3.6 8.015 8.021zM.96 16.952h7.241v1.779H.959v-1.779zM2.745 11.608h7.241v1.779H2.745v-1.779zM2.745 22.295h7.241v1.779H2.745v-1.779z" style="fill:var(--color7, #ebdce2)"/><path fill="#645760" d="M27.802 16.952v1.779h-7.128v-7.122h1.779v5.343h5.349z" style="fill:var(--color8, #645760)"/><path fill="#3f323a" d="M27.802 16.952v1.779h-6.236v-7.122h.893v5.343h5.343z" style="fill:var(--color9, #3f323a)"/><path fill="#e6398a" d="M18.894 4.48h5.343v1.779h-5.343V4.48z" style="fill:var(--color3, #e6398a)"/><path fill="#ff6ab1" d="M21.566 4.48h2.672v1.779h-2.672V4.48z" style="fill:var(--color5, #ff6ab1)"/></symbol><symbol id="icon-Vector" viewBox="0 0 48 32"><path fill="none" stroke="#e85668" stroke-linecap="round" stroke-miterlimit="10" stroke-width="6" d="M3 3h42M3 16h42M3 29h42" style="stroke:var(--color1, #e85668)"/></symbol><symbol id="icon-evenlope" viewBox="0 0 30 32"><path fill="#fff" d="M30.316 9.216V25.5c0 1.66-.481 3.258-1.346 4.465s-2.046 1.932-3.302 2.026l-.279.01H4.926c-1.258 0-2.469-.635-3.384-1.775S.078 27.527.007 25.869l-.008-.368V9.217l14.63 10.112c.163.113.344.171.527.171s.365-.059.527-.171l14.63-10.112zM4.926 0h20.463c1.221 0 2.399.598 3.304 1.679s1.475 2.566 1.598 4.169l-15.134 10.46L.023 5.848C.14 4.309.67 2.875 1.517 1.805S3.472.098 4.643.01L4.925 0z" style="fill:var(--color2, #fff)"/></symbol><symbol id="icon-exclusive" viewBox="0 0 32 32"><path fill="#e64178" d="M21.424 13.841H11.01a.868.868 0 0 0-.868.868v9.208c0 .217.081.426.228.586l4.252 4.638c.187.204.451.32.727.32h1.736c.276 0 .54-.116.727-.32l4.252-4.638a.865.865 0 0 0 .228-.586v-9.208a.868.868 0 0 0-.868-.868z" style="fill:var(--color10, #e64178)"/><path fill="#ff6e91" d="M20.556 23.917v-9.208a.868.868 0 0 0-.868-.868H11.01a.868.868 0 0 0-.868.868v9.208c0 .217.081.426.228.586l4.252 4.638a.987.987 0 0 0 1.454 0l4.252-4.638a.865.865 0 0 0 .228-.586z" style="fill:var(--color11, #ff6e91)"/><path fill="#d7e6f0" d="M12.746 18.614c-.957 0-1.736-.779-1.736-1.736s.779-1.736 1.736-1.736 1.736.779 1.736 1.736-.779 1.736-1.736 1.736zm0-2.603a.87.87 0 0 0 0 1.736.868.868 0 0 0 0-1.736zM17.953 22.085c-.957 0-1.736-.779-1.736-1.736s.779-1.736 1.736-1.736 1.736.779 1.736 1.736-.779 1.736-1.736 1.736zm0-2.603a.87.87 0 0 0 0 1.736.868.868 0 0 0 0-1.736zM12.746 21.652a.435.435 0 0 1-.307-.741l5.207-5.207a.435.435 0 0 1 .614.614l-5.207 5.207a.432.432 0 0 1-.307.127z" style="fill:var(--color12, #d7e6f0)"/><path fill="#ffd241" d="M21.424 12.106H11.01a.868.868 0 1 0 0 1.736h10.414a.868.868 0 0 0 0-1.736zM19.254 7.767 16.217 4.73 13.18 7.767 10.143 4.73v5.641c0 .479.389.868.868.868h10.414a.868.868 0 0 0 .868-.868V4.73l-3.037 3.037z" style="fill:var(--color13, #ffd241)"/><path fill="#faa037" d="M19.254 7.767 16.217 4.73v6.508h5.207a.868.868 0 0 0 .868-.868V4.729l-3.037 3.037zM22.292 12.974a.868.868 0 0 1-.868.868h-5.207v-1.736h5.207c.479 0 .868.388.868.868zM11.01 11.238h5.207v.868H11.01v-.868z" style="fill:var(--color14, #faa037)"/><path fill="#f57328" d="M16.217 11.238h5.207v.868h-5.207v-.868z" style="fill:var(--color15, #f57328)"/><path fill="#faa037" d="M16.211 5.163a1.302 1.302 0 1 0 0-2.604 1.302 1.302 0 0 0 0 2.604zM22.292 5.163a1.302 1.302 0 1 0 0-2.604 1.302 1.302 0 0 0 0 2.604zM10.142 5.163a1.302 1.302 0 1 0 0-2.604 1.302 1.302 0 0 0 0 2.604z" style="fill:var(--color14, #faa037)"/><path fill="#ffd241" d="M10.142 4.006a.579.579 0 1 0 0-1.157.579.579 0 0 0 0 1.157zM16.217 4.006a.579.579 0 1 0 0-1.157.579.579 0 0 0 0 1.157zM22.292 4.006a.579.579 0 1 0 0-1.157.579.579 0 0 0 0 1.157z" style="fill:var(--color13, #ffd241)"/><path fill="#00d2d2" d="m15.603 6.645-.942.942a.867.867 0 0 0 0 1.227l.942.942a.867.867 0 0 0 1.227 0l.942-.942a.867.867 0 0 0 0-1.227l-.942-.942a.867.867 0 0 0-1.227 0z" style="fill:var(--color16, #00d2d2)"/><path fill="#289bc3" d="m17.773 7.587-.942-.942a.867.867 0 0 0-.614-.254v3.62a.869.869 0 0 0 .614-.254l.942-.942a.867.867 0 0 0 0-1.227z" style="fill:var(--color17, #289bc3)"/><path fill="#e64178" d="M15.349 28.16a1.157 1.157 0 1 0 0-2.314 1.157 1.157 0 0 0 0 2.314z" style="fill:var(--color10, #e64178)"/><path fill="#faa037" d="M26.631 15.143h-1.302v-1.519a.651.651 0 0 1 1.302 0v1.519zM25.98 18.614a.651.651 0 0 1-.651-.651v-1.519h1.302v1.519a.651.651 0 0 1-.651.651zM25.329 15.143v1.302H23.81a.651.651 0 0 1 0-1.302h1.519z" style="fill:var(--color14, #faa037)"/><path fill="#faa037" d="M28.8 15.794a.651.651 0 0 1-.651.651H26.63v-1.302h1.519c.359 0 .651.291.651.651zM6.671 8.201H5.369V6.682a.651.651 0 0 1 1.302 0v1.519zM6.02 11.672a.651.651 0 0 1-.651-.651V9.502h1.302v1.519a.651.651 0 0 1-.651.651z" style="fill:var(--color14, #faa037)"/><path fill="#faa037" d="M5.37 8.201v1.302H3.851a.651.651 0 0 1 0-1.302H5.37zM8.841 8.851a.651.651 0 0 1-.651.651H6.671V8.2H8.19c.359 0 .651.291.651.651zM9.275 23.387H7.973v-1.519a.651.651 0 0 1 1.302 0v1.519zM8.624 26.858a.651.651 0 0 1-.651-.651v-1.519h1.302v1.519a.651.651 0 0 1-.651.651zM7.973 23.387v1.302H6.454a.651.651 0 0 1 0-1.302h1.519z" style="fill:var(--color14, #faa037)"/><path fill="#faa037" d="M11.444 24.038a.651.651 0 0 1-.651.651H9.274v-1.302h1.519c.359 0 .651.291.651.651z" style="fill:var(--color14, #faa037)"/></symbol><symbol id="icon-heart" viewBox="0 0 32 32"><path fill="#ec559b" d="M23.979 2.88H8.015A4.823 4.823 0 0 0 3.2 7.712v10.513c0 2.666 2.152 4.832 4.815 4.832h2.291c.107 0 .196.089.196.196v5.187c0 .614.745.912 1.167.462l5.42-5.782a.204.204 0 0 1 .145-.063h6.752a4.823 4.823 0 0 0 4.815-4.832V7.712c-.006-2.673-2.158-4.832-4.821-4.832z" style="fill:var(--color18, #ec559b)"/><path fill="#e6398a" d="M12.526 21.247c0-.114-.088-.209-.189-.209h-2.221c-2.575 0-4.657-2.28-4.657-5.086V4.881c0-.475.057-.937.17-1.374A4.83 4.83 0 0 0 3.2 7.706v10.513c0 2.666 2.152 4.832 4.815 4.832h2.291c.107 0 .196.089.196.196v5.187c0 .614.745.912 1.167.462l.858-.918v-6.732z" style="fill:var(--color3, #e6398a)"/><path fill="#ec559b" d="M21.405 9.15a3.114 3.114 0 0 0-4.423 0l-.688.69a.417.417 0 0 1-.593 0l-.688-.684a3.114 3.114 0 0 0-4.423 0 3.143 3.143 0 0 0 0 4.44l5.105 5.124a.417.417 0 0 0 .593 0l5.111-5.136a3.14 3.14 0 0 0 .006-4.433z" style="fill:var(--color18, #ec559b)"/><path fill="#fff5f8" d="M21.405 9.15a3.114 3.114 0 0 0-4.423 0l-.688.69a.417.417 0 0 1-.593 0l-.688-.684a3.114 3.114 0 0 0-4.423 0 3.143 3.143 0 0 0 0 4.44l5.105 5.124a.417.417 0 0 0 .593 0l5.111-5.136a3.14 3.14 0 0 0 .006-4.433z" style="fill:var(--color19, #fff5f8)"/><path fill="#dcebeb" d="M12.223 13.596a3.143 3.143 0 0 1 1.395-5.251 3.112 3.112 0 0 0-3.029.811 3.143 3.143 0 0 0 0 4.44l5.105 5.124a.417.417 0 0 0 .593 0l.517-.519-4.581-4.604z" style="fill:var(--color20, #dcebeb)"/></symbol><symbol id="icon-location" viewBox="0 0 22 32"><path fill="#fff" d="M11.077 0C4.959 0 0 5.401 0 12.063c0 2.228.4 4.529 1.55 6.187L11.077 32l9.527-13.75c1.044-1.506 1.55-4.169 1.55-6.187C22.154 5.401 17.195 0 11.077 0zm0 6.986c2.574 0 4.661 2.273 4.661 5.076s-2.087 5.076-4.661 5.076c-2.574 0-4.661-2.273-4.661-5.076s2.087-5.076 4.661-5.076z" style="fill:var(--color2, #fff)"/></symbol><symbol id="icon-user" viewBox="0 0 32 32"><path d="M18 22.082v-1.649c2.203-1.241 4-4.337 4-7.432 0-4.971 0-9-6-9s-6 4.029-6 9c0 3.096 1.797 6.191 4 7.432v1.649C7.216 22.637 2 25.97 2 30h28c0-4.03-5.216-7.364-12-7.918z"/></symbol></defs></svg>